<?xml version="1.0" encoding="utf-8"?>
<!-- Generator: Adobe Illustrator 17.0.0, SVG Export Plug-In . SVG Version: 6.00 Build 0)  -->
<!DOCTYPE svg PUBLIC "-//W3C//DTD SVG 1.1//EN" "http://www.w3.org/Graphics/SVG/1.1/DTD/svg11.dtd">
<svg version="1.1" id="Layer_1" xmlns="http://www.w3.org/2000/svg" xmlns:xlink="http://www.w3.org/1999/xlink" x="0px" y="0px"
	 width="170px" height="170px" viewBox="0 0 170 170" enable-background="new 0 0 170 170" xml:space="preserve">
<g>
	<path fill="#9B9A98" d="M141.98,27.161c-1.436,13.149-11.568,23.746-14.837,26.849l-0.109,0.104l-7.39,7.051l13.009,7.958
		l33.328-26.439L141.98,27.161z"/>
	<path fill="#9B9A98" d="M84.055,39.395l26.762,16.371l9.443-9.009c1.986-1.885,11.896-11.839,11.896-22.683
		c0-1.177-0.075-2.295-0.183-3.385l-14.191-9.178L84.055,39.395z"/>
</g>
<path fill="#9B9A98" d="M84.059,39.428"/>
<polygon fill="#9B9A98" points="2.136,95.593 50.334,126.768 84.059,98.882 35.463,69.155 "/>
<polygon fill="#9B9A98" points="84.059,98.882 117.786,126.768 165.985,95.593 132.66,69.155 "/>
<path fill="#9B9A98" d="M84.059,39.428"/>
<polygon fill="#9B9A98" points="32.617,139.382 32.617,124.573 50.105,135.881 84.159,107.889 118.212,135.881 135.7,124.573 
	135.7,139.382 84.159,170 "/>
<g>
	<path fill="#9B9A98" d="M50.328,11.511l-14.073,9.102c-0.188,1.401-0.303,2.862-0.303,4.413c0,11.765,11.685,22.433,11.802,22.538
		l0.165,0.15l8.794,8.405l27.341-16.725L50.328,11.511z"/>
	<path fill="#9B9A98" d="M41.06,54.991C39.633,53.7,27.201,42.038,26.047,27.215L2.129,42.684l33.327,26.439l12.433-7.605
		L41.06,54.991z"/>
</g>
<path fill="#DC1113" d="M107.023-0.167c16.431,0,26.27,9.527,26.27,25.475c0,13.067-12.09,24.008-12.586,24.501L86.473,82.471
	c-0.66,0.656-1.537,0.979-2.419,0.979c-0.882,0-1.759-0.325-2.419-0.979l-34.29-32.774c-0.44-0.381-12.53-11.321-12.53-24.39
	c0-15.948,9.839-25.474,26.27-25.474c9.614,0,18.627,7.511,22.97,11.758C88.396,7.346,97.409-0.167,107.023-0.167"/>
</svg>
