<?xml version="1.0" encoding="utf-8"?>
<!-- Generator: Adobe Illustrator 17.0.2, SVG Export Plug-In . SVG Version: 6.00 Build 0)  -->
<!DOCTYPE svg PUBLIC "-//W3C//DTD SVG 1.1//EN" "http://www.w3.org/Graphics/SVG/1.1/DTD/svg11.dtd">
<svg version="1.1" id="Layer_1" xmlns="http://www.w3.org/2000/svg" xmlns:xlink="http://www.w3.org/1999/xlink" x="0px" y="0px"
	 width="400px" height="126.475px" viewBox="0 0 400 126.475" enable-background="new 0 0 400 126.475" xml:space="preserve">
<g>
	<path fill="#8F7D7A" d="M102.966,48.448L88.531,29.369l-3.716,4.431v14.648H74.669V0.786h10.146V22.08L101.68,0.786h12.505
		L95.249,23.152l20.222,25.296H102.966z"/>
	<path fill="#8F7D7A" d="M123.687,29.44V0.786h10.29v28.297c0,6.646,3.859,11.219,11.219,11.219c7.36,0,11.147-4.573,11.147-11.219
		V0.786h10.361v28.583c0,11.862-7.003,19.937-21.509,19.937S123.687,41.159,123.687,29.44z"/>
	<path fill="#8F7D7A" d="M179.635,48.448V0.786h18.793c14.934,0,25.295,9.503,25.295,23.867c0,14.363-10.361,23.795-25.295,23.795
		H179.635z M213.362,24.653c0-8.432-5.145-14.935-14.934-14.935h-8.646v29.797h8.646C207.86,39.516,213.362,32.727,213.362,24.653z"
		/>
	<path fill="#8F7D7A" d="M232.226,24.653C232.226,10.29,242.729,0,257.093,0c14.434,0,24.938,10.29,24.938,24.653
		c0,14.363-10.505,24.652-24.938,24.652C242.729,49.305,232.226,39.016,232.226,24.653z M271.599,24.653
		c0-8.932-5.717-15.649-14.506-15.649s-14.435,6.717-14.435,15.649c0,8.86,5.646,15.649,14.435,15.649
		S271.599,33.513,271.599,24.653z"/>
	<path fill="#8F7D7A" d="M289.533,41.731l5.502-7.717c3.358,3.501,8.574,6.431,15.148,6.431c5.574,0,8.289-2.573,8.289-5.288
		c0-8.432-27.439-2.644-27.439-20.58c0-7.932,6.86-14.506,18.079-14.506c7.574,0,13.862,2.287,18.578,6.646l-5.645,7.432
		c-3.858-3.573-9.004-5.216-13.863-5.216c-4.358,0-6.788,1.929-6.788,4.788c0,7.574,27.368,2.501,27.368,20.294
		c0,8.717-6.217,15.292-19.079,15.292C300.537,49.305,293.963,46.233,289.533,41.731z"/>
	<path fill="#8F7D7A" d="M18.055,119.903l-3.644-11.752l-3.644,11.752H5.91L0.659,102.65h4.715l3.215,11.609l3.786-11.609h4.037
		l3.786,11.609l3.215-11.609h4.715l-5.251,17.253H18.055z"/>
	<path fill="#8F7D7A" d="M45.529,119.903l-3.644-11.752l-3.644,11.752h-4.858l-5.251-17.253h4.715l3.215,11.609l3.786-11.609h4.037
		l3.786,11.609l3.215-11.609h4.715l-5.251,17.253H45.529z"/>
	<path fill="#8F7D7A" d="M73.004,119.903l-3.644-11.752l-3.644,11.752h-4.858l-5.251-17.253h4.715l3.215,11.609l3.786-11.609h4.037
		l3.786,11.609l3.215-11.609h4.715l-5.251,17.253H73.004z"/>
	<path fill="#8F7D7A" d="M83.439,117.403c0-1.572,1.322-2.894,2.894-2.894s2.894,1.321,2.894,2.894c0,1.571-1.322,2.893-2.894,2.893
		S83.439,118.974,83.439,117.403z"/>
	<path fill="#8F7D7A" d="M104.874,119.903v-2.215c-1.357,1.715-3.251,2.644-5.323,2.644c-4.358,0-7.644-3.286-7.644-9.037
		c0-5.645,3.25-9.073,7.644-9.073c2.036,0,3.965,0.893,5.323,2.644v-8.788h4.572v23.826H104.874z M104.874,114.331v-6.108
		c-0.75-1.144-2.394-1.965-3.929-1.965c-2.572,0-4.358,2.036-4.358,5.037c0,2.965,1.786,5.001,4.358,5.001
		C102.48,116.295,104.124,115.473,104.874,114.331z"/>
	<path fill="#8F7D7A" d="M113.951,119.903V102.65h4.537v2.357c1.214-1.536,3.357-2.786,5.501-2.786v4.43
		c-0.322-0.072-0.75-0.107-1.25-0.107c-1.5,0-3.5,0.857-4.25,1.965v11.395H113.951z"/>
	<path fill="#8F7D7A" d="M125.705,111.258c0-4.894,3.429-9.037,9.109-9.037c5.715,0,9.145,4.144,9.145,9.037
		c0,4.93-3.429,9.073-9.145,9.073C129.134,120.332,125.705,116.188,125.705,111.258z M139.243,111.258
		c0-2.679-1.607-5.001-4.429-5.001s-4.394,2.322-4.394,5.001c0,2.715,1.572,5.037,4.394,5.037S139.243,113.973,139.243,111.258z"/>
	<path fill="#8F7D7A" d="M151.856,117.688v8.787h-4.537V102.65h4.537v2.179c1.321-1.679,3.215-2.607,5.322-2.607
		c4.429,0,7.644,3.286,7.644,9.037s-3.215,9.073-7.644,9.073C155.143,120.332,153.25,119.474,151.856,117.688z M160.108,111.258
		c0-2.965-1.75-5.001-4.358-5.001c-1.465,0-3.144,0.857-3.894,1.965v6.108c0.75,1.071,2.429,1.965,3.894,1.965
		C158.357,116.295,160.108,114.259,160.108,111.258z"/>
	<path fill="#8F7D7A" d="M168.149,119.903V96.077h4.537v8.788c1.357-1.751,3.286-2.644,5.322-2.644c4.394,0,7.644,3.429,7.644,9.073
		c0,5.751-3.286,9.037-7.644,9.037c-2.072,0-3.965-0.929-5.322-2.644v2.215H168.149z M176.579,116.295
		c2.643,0,4.394-2.001,4.394-5.001c0-3.001-1.75-5.037-4.394-5.037c-1.465,0-3.144,0.857-3.894,2.001v6.107
		C173.436,115.473,175.114,116.295,176.579,116.295z"/>
	<path fill="#8F7D7A" d="M187.978,111.258c0-4.894,3.429-9.037,9.109-9.037c5.715,0,9.145,4.144,9.145,9.037
		c0,4.93-3.43,9.073-9.145,9.073C191.407,120.332,187.978,116.188,187.978,111.258z M201.517,111.258
		c0-2.679-1.608-5.001-4.43-5.001c-2.822,0-4.394,2.322-4.394,5.001c0,2.715,1.571,5.037,4.394,5.037
		C199.909,116.295,201.517,113.973,201.517,111.258z"/>
	<path fill="#8F7D7A" d="M219.059,119.903l-3.929-5.822l-3.965,5.822h-5.037l6.108-8.858l-5.751-8.395h5.072l3.572,5.322
		l3.536-5.322h5.072l-5.787,8.395l6.18,8.858H219.059z"/>
	<path fill="#8F7D7A" d="M237.565,119.903l-4.572-6.645l-2.071,2.215v4.43h-4.537V96.077h4.537v14.253l6.537-7.68h5.572
		l-6.823,7.822l7.037,9.431H237.565z"/>
	<path fill="#8F7D7A" d="M257.144,119.903v-2.179c-1.179,1.321-3.251,2.607-6.072,2.607c-3.787,0-5.573-2.072-5.573-5.43V102.65
		h4.537v10.466c0,2.394,1.25,3.18,3.179,3.18c1.751,0,3.144-0.965,3.93-1.965V102.65h4.536v17.253H257.144z"/>
	<path fill="#8F7D7A" d="M278.044,119.903v-2.215c-1.357,1.715-3.25,2.644-5.322,2.644c-4.357,0-7.644-3.286-7.644-9.037
		c0-5.645,3.25-9.073,7.644-9.073c2.036,0,3.965,0.893,5.322,2.644v-8.788h4.572v23.826H278.044z M278.044,114.331v-6.108
		c-0.75-1.144-2.393-1.965-3.929-1.965c-2.572,0-4.358,2.036-4.358,5.037c0,2.965,1.786,5.001,4.358,5.001
		C275.651,116.295,277.294,115.473,278.044,114.331z"/>
	<path fill="#8F7D7A" d="M286.014,111.258c0-4.894,3.43-9.037,9.109-9.037c5.715,0,9.145,4.144,9.145,9.037
		c0,4.93-3.43,9.073-9.145,9.073C289.443,120.332,286.014,116.188,286.014,111.258z M299.553,111.258
		c0-2.679-1.607-5.001-4.43-5.001s-4.394,2.322-4.394,5.001c0,2.715,1.571,5.037,4.394,5.037S299.553,113.973,299.553,111.258z"/>
	<path fill="#8F7D7A" d="M306.128,117.653l1.965-3.18c1.25,1.179,3.822,2.357,5.965,2.357c1.965,0,2.894-0.785,2.894-1.857
		c0-2.857-10.252-0.535-10.252-7.322c0-2.894,2.536-5.43,7.073-5.43c2.929,0,5.251,1,6.966,2.357l-1.822,3.107
		c-1.036-1.107-3-2-5.108-2c-1.643,0-2.714,0.75-2.714,1.715c0,2.571,10.216,0.429,10.216,7.394c0,3.144-2.68,5.537-7.466,5.537
		C310.843,120.332,307.95,119.332,306.128,117.653z"/>
	<path fill="#8F7D7A" d="M324.099,117.403c0-1.572,1.322-2.894,2.894-2.894s2.894,1.321,2.894,2.894
		c0,1.571-1.322,2.893-2.894,2.893S324.099,118.974,324.099,117.403z"/>
	<path fill="#8F7D7A" d="M332.566,111.258c0-5.286,3.822-9.037,9.145-9.037c3.537,0,5.68,1.536,6.823,3.107l-2.965,2.786
		c-0.821-1.214-2.072-1.857-3.644-1.857c-2.751,0-4.68,2.001-4.68,5.001c0,3.001,1.929,5.037,4.68,5.037
		c1.571,0,2.822-0.715,3.644-1.857l2.965,2.75c-1.144,1.607-3.286,3.144-6.823,3.144
		C336.389,120.332,332.566,116.581,332.566,111.258z"/>
	<path fill="#8F7D7A" d="M350.395,111.258c0-4.894,3.429-9.037,9.108-9.037c5.715,0,9.145,4.144,9.145,9.037
		c0,4.93-3.43,9.073-9.145,9.073C353.823,120.332,350.395,116.188,350.395,111.258z M363.933,111.258
		c0-2.679-1.607-5.001-4.43-5.001s-4.394,2.322-4.394,5.001c0,2.715,1.571,5.037,4.394,5.037S363.933,113.973,363.933,111.258z"/>
	<path fill="#8F7D7A" d="M393.406,119.903v-10.895c0-1.607-0.715-2.751-2.572-2.751c-1.607,0-2.929,1.071-3.572,2.001v11.645h-4.572
		v-10.895c0-1.607-0.714-2.751-2.571-2.751c-1.572,0-2.894,1.071-3.572,2.036v11.609h-4.537V102.65h4.537v2.25
		c0.714-1.036,3-2.679,5.644-2.679c2.536,0,4.144,1.179,4.787,3.144c1-1.572,3.286-3.144,5.93-3.144
		c3.179,0,5.072,1.679,5.072,5.215v12.467H393.406z"/>
</g>
</svg>
